<svg width="159" height="34" viewBox="0 0 159 34" fill="none" xmlns="http://www.w3.org/2000/svg">
<g clip-path="url(#clip0_171_3286)">
<g clip-path="url(#clip1_171_3286)">
<g clip-path="url(#clip2_171_3286)">
<path d="M21.7202 17.4229C21.7202 16.6363 21.4612 15.921 21.0136 15.3538L16.2752 20.09C16.8523 20.5375 17.5687 20.7965 18.3454 20.7965C20.2171 20.7954 21.73 19.2836 21.7202 17.4229ZM7.62541 20.7855C5.7636 20.7954 4.25067 19.2825 4.25067 17.412C4.25067 16.6363 4.50958 15.9199 4.95721 15.3428L9.69567 20.079C9.12847 20.5266 8.41204 20.7855 7.62541 20.7855ZM3.96212 14.3675C3.26545 15.2035 2.84745 16.2578 2.84745 17.4317C2.84745 20.068 4.98794 22.2073 7.62541 22.2073C8.78945 22.2073 9.85476 21.7893 10.6908 21.0928L12.9903 23.3912L15.2899 21.0928C16.1259 21.7893 17.1814 22.2073 18.3553 22.2073C20.9928 22.2073 23.1333 20.068 23.1333 17.4317C23.1333 16.2677 22.7153 15.2024 22.0186 14.3675L23.0937 13.2935L24.1184 12.2688C25.3132 14.2381 26 16.5365 26 19.005C26 26.1886 20.1775 32 13.0002 32C5.82394 32 0.000414502 26.1788 0.000414502 19.005C-0.0193333 16.5277 0.667467 14.2293 1.86223 12.2688L3.96212 14.3675ZM13.0002 21.402L23.3131 11.0938C23.0247 10.7252 22.7163 10.3675 22.3971 10.0296C20.0284 7.55239 16.6931 6 12.9903 6C9.28756 6 5.94352 7.55239 3.58362 10.0296C3.25558 10.3576 2.94619 10.7263 2.68727 11.0839L13.0002 21.402ZM20.984 11.0049L12.9914 18.995L4.9989 11.0049C7.11854 8.8656 9.94583 7.69171 12.9914 7.69171C16.037 7.69171 18.8533 8.8656 20.984 11.0049Z" fill="black"/>
</g>
</g>
</g>
<path d="M42.4186 20.256V17.352H49.3066V27H46.3306V25.008C45.4666 26.448 43.4746 27.336 41.5306 27.336C36.8746 27.336 34.0426 24.024 34.0426 18.36C34.0426 13.176 37.3306 9.216 42.1786 9.216C46.1146 9.216 49.1146 11.544 49.4026 14.856H45.8026C45.3946 13.128 43.9066 12.048 42.1306 12.048C39.3946 12.048 37.6906 14.568 37.6906 18.456C37.6906 22.152 39.3226 24.504 41.9626 24.504C44.0026 24.504 45.9466 23.184 45.9466 20.64V20.256H42.4186ZM54.5326 14.616V16.248C55.4206 15.072 56.8846 14.4 58.4446 14.4C61.9966 14.4 62.5966 16.92 62.5966 20.112V27H59.2126V20.136C59.2126 18.312 58.9006 16.944 57.2206 16.944C55.6366 16.944 54.7726 18 54.7726 20.88V27H51.3886V14.616H54.5326ZM70.4236 14.28C74.2876 14.28 76.7356 16.872 76.7356 20.808C76.7356 24.768 74.2876 27.336 70.4236 27.336C66.5836 27.336 64.1356 24.768 64.1356 20.808C64.1356 16.848 66.5836 14.28 70.4236 14.28ZM70.4236 16.848C68.6236 16.848 67.6636 18.336 67.6636 20.808C67.6636 23.256 68.6236 24.768 70.4236 24.768C72.2476 24.768 73.2076 23.256 73.2076 20.808C73.2076 18.312 72.2476 16.848 70.4236 16.848ZM88.5896 18.408H85.2296C85.1576 17.064 84.4856 16.632 83.1656 16.632C82.0856 16.632 81.3656 17.088 81.3656 17.832C81.3656 18.84 82.2056 19.08 85.1816 19.704C87.7016 20.256 88.8776 21.456 88.8776 23.328C88.8776 25.8 86.7896 27.336 83.3576 27.336C79.7816 27.336 77.7176 25.92 77.6696 23.04H81.1256C81.1256 24.36 81.8696 24.984 83.3336 24.984C84.4856 24.984 85.3256 24.48 85.3256 23.688C85.3256 22.824 84.4376 22.464 83.3096 22.176C82.2776 21.912 81.0056 21.696 79.9736 21.192C78.8216 20.64 77.9096 19.752 77.9096 18.168C77.9096 15.792 79.9976 14.28 83.2856 14.28C86.6936 14.28 88.5896 15.696 88.5896 18.408ZM90.4955 27V14.616H93.8795V27H90.4955ZM90.4955 12.84V9.576H93.8795V12.84H90.4955ZM106.38 18.408H103.02C102.948 17.064 102.276 16.632 100.956 16.632C99.8755 16.632 99.1555 17.088 99.1555 17.832C99.1555 18.84 99.9955 19.08 102.972 19.704C105.492 20.256 106.668 21.456 106.668 23.328C106.668 25.8 104.58 27.336 101.148 27.336C97.5715 27.336 95.5075 25.92 95.4595 23.04H98.9155C98.9155 24.36 99.6595 24.984 101.124 24.984C102.276 24.984 103.116 24.48 103.116 23.688C103.116 22.824 102.228 22.464 101.1 22.176C100.068 21.912 98.7955 21.696 97.7635 21.192C96.6115 20.64 95.6995 19.752 95.6995 18.168C95.6995 15.792 97.7875 14.28 101.076 14.28C104.484 14.28 106.38 15.696 106.38 18.408Z" fill="black"/>
<path d="M126.253 9.576L120.805 27H116.389L110.965 9.576H114.877L117.325 18.288C117.901 20.232 118.237 21.408 118.741 23.352H118.909C119.365 21.408 119.677 20.232 120.229 18.288L122.533 9.576H126.253ZM127.538 9.576H133.394C135.242 9.576 136.754 9.816 137.882 10.44C139.562 11.424 140.45 13.128 140.45 15.336C140.45 17.424 139.562 19.104 137.954 20.064C136.898 20.688 135.626 20.928 133.37 20.928H131.114V27H127.538V9.576ZM131.114 18.048H133.058C134.138 18.048 134.954 17.952 135.554 17.568C136.394 17.088 136.778 16.2 136.778 15.072C136.778 14.064 136.322 13.272 135.41 12.84C134.834 12.528 134.042 12.48 133.106 12.48H131.114V18.048ZM142.175 27V9.576H147.143L151.199 18.288C151.919 19.92 152.687 21.72 153.287 23.352H153.503C153.479 21.72 153.383 19.848 153.359 18.216L153.311 9.576H156.647V27H151.559L147.551 18.288C146.519 16.008 146.039 14.736 145.463 13.104H145.247C145.295 14.736 145.415 16.728 145.439 18.36L145.511 27H142.175Z" fill="black"/>
<defs>
<clipPath id="clip0_171_3286">
<rect width="30" height="30" fill="white" transform="translate(0 4)"/>
</clipPath>
<clipPath id="clip1_171_3286">
<rect width="30" height="30" fill="white" transform="translate(0 4)"/>
</clipPath>
<clipPath id="clip2_171_3286">
<rect width="26" height="26" fill="white" transform="translate(0 6)"/>
</clipPath>
</defs>
</svg>
